<mxfile host="app.diagrams.net" agent="Mozilla/5.0 (Windows NT 10.0; Win64; x64; rv:133.0) Gecko/20100101 Firefox/133.0" version="25.0.3">
  <diagram name="Lapa-1" id="77Y0iJvOLOodqg3EVPmE">
    <mxGraphModel dx="1050" dy="559" grid="1" gridSize="10" guides="1" tooltips="1" connect="1" arrows="1" fold="1" page="1" pageScale="1" pageWidth="827" pageHeight="1169" math="0" shadow="0">
      <root>
        <mxCell id="0" />
        <mxCell id="1" parent="0" />
        <mxCell id="TkOLVOEPybVCUN1NsoD1-2" style="edgeStyle=orthogonalEdgeStyle;rounded=0;orthogonalLoop=1;jettySize=auto;html=1;exitX=0.5;exitY=1;exitDx=0;exitDy=0;" edge="1" parent="1" source="TkOLVOEPybVCUN1NsoD1-1">
          <mxGeometry relative="1" as="geometry">
            <mxPoint x="420" y="140" as="targetPoint" />
          </mxGeometry>
        </mxCell>
        <mxCell id="TkOLVOEPybVCUN1NsoD1-1" value="S훮kums" style="ellipse;whiteSpace=wrap;html=1;" vertex="1" parent="1">
          <mxGeometry x="360" y="40" width="120" height="80" as="geometry" />
        </mxCell>
        <mxCell id="TkOLVOEPybVCUN1NsoD1-6" style="edgeStyle=orthogonalEdgeStyle;rounded=0;orthogonalLoop=1;jettySize=auto;html=1;exitX=0.5;exitY=1;exitDx=0;exitDy=0;entryX=0.5;entryY=0;entryDx=0;entryDy=0;" edge="1" parent="1" source="TkOLVOEPybVCUN1NsoD1-3" target="TkOLVOEPybVCUN1NsoD1-7">
          <mxGeometry relative="1" as="geometry">
            <mxPoint x="420" y="220" as="targetPoint" />
          </mxGeometry>
        </mxCell>
        <mxCell id="TkOLVOEPybVCUN1NsoD1-3" value="&lt;div&gt;arr = mas카vs;&lt;br&gt;&lt;/div&gt;&lt;div&gt;n = elementu skaits mas카v훮;&lt;/div&gt;&lt;div&gt;i = 0;&lt;br&gt;&lt;/div&gt;" style="rounded=0;whiteSpace=wrap;html=1;" vertex="1" parent="1">
          <mxGeometry x="360" y="140" width="120" height="60" as="geometry" />
        </mxCell>
        <mxCell id="TkOLVOEPybVCUN1NsoD1-12" style="edgeStyle=orthogonalEdgeStyle;rounded=0;orthogonalLoop=1;jettySize=auto;html=1;exitX=0;exitY=0.5;exitDx=0;exitDy=0;" edge="1" parent="1">
          <mxGeometry relative="1" as="geometry">
            <mxPoint x="340" y="270" as="targetPoint" />
            <mxPoint x="380" y="270" as="sourcePoint" />
          </mxGeometry>
        </mxCell>
        <mxCell id="TkOLVOEPybVCUN1NsoD1-52" style="edgeStyle=orthogonalEdgeStyle;rounded=0;orthogonalLoop=1;jettySize=auto;html=1;exitX=1;exitY=0.5;exitDx=0;exitDy=0;entryX=0.5;entryY=0;entryDx=0;entryDy=0;" edge="1" parent="1" target="TkOLVOEPybVCUN1NsoD1-10">
          <mxGeometry relative="1" as="geometry">
            <mxPoint x="460" y="270" as="sourcePoint" />
            <Array as="points">
              <mxPoint x="660" y="270" />
              <mxPoint x="660" y="490" />
              <mxPoint x="420" y="490" />
            </Array>
          </mxGeometry>
        </mxCell>
        <mxCell id="TkOLVOEPybVCUN1NsoD1-7" value="i &amp;lt; n" style="rhombus;whiteSpace=wrap;html=1;" vertex="1" parent="1">
          <mxGeometry x="380" y="230" width="80" height="80" as="geometry" />
        </mxCell>
        <mxCell id="TkOLVOEPybVCUN1NsoD1-10" value="&lt;div&gt;Beigas&lt;/div&gt;" style="ellipse;whiteSpace=wrap;html=1;" vertex="1" parent="1">
          <mxGeometry x="360" y="515" width="120" height="80" as="geometry" />
        </mxCell>
        <mxCell id="TkOLVOEPybVCUN1NsoD1-11" value="0" style="text;html=1;align=center;verticalAlign=middle;whiteSpace=wrap;rounded=0;" vertex="1" parent="1">
          <mxGeometry x="440" y="240" width="50" height="30" as="geometry" />
        </mxCell>
        <mxCell id="TkOLVOEPybVCUN1NsoD1-13" value="&lt;div&gt;1&lt;/div&gt;" style="text;html=1;align=center;verticalAlign=middle;whiteSpace=wrap;rounded=0;" vertex="1" parent="1">
          <mxGeometry x="340" y="240" width="60" height="30" as="geometry" />
        </mxCell>
        <mxCell id="TkOLVOEPybVCUN1NsoD1-15" style="edgeStyle=orthogonalEdgeStyle;rounded=0;orthogonalLoop=1;jettySize=auto;html=1;exitX=0.5;exitY=1;exitDx=0;exitDy=0;" edge="1" parent="1" source="TkOLVOEPybVCUN1NsoD1-14">
          <mxGeometry relative="1" as="geometry">
            <mxPoint x="280" y="320" as="targetPoint" />
          </mxGeometry>
        </mxCell>
        <mxCell id="TkOLVOEPybVCUN1NsoD1-14" value="&lt;div&gt;swapped = False;&lt;/div&gt;&lt;div&gt;j = 0;&lt;br&gt;&lt;/div&gt;" style="rounded=0;whiteSpace=wrap;html=1;" vertex="1" parent="1">
          <mxGeometry x="220" y="240" width="120" height="60" as="geometry" />
        </mxCell>
        <mxCell id="TkOLVOEPybVCUN1NsoD1-23" style="edgeStyle=orthogonalEdgeStyle;rounded=0;orthogonalLoop=1;jettySize=auto;html=1;exitX=1;exitY=0.5;exitDx=0;exitDy=0;entryX=0.5;entryY=0;entryDx=0;entryDy=0;" edge="1" parent="1" source="TkOLVOEPybVCUN1NsoD1-16" target="TkOLVOEPybVCUN1NsoD1-22">
          <mxGeometry relative="1" as="geometry">
            <Array as="points">
              <mxPoint x="350" y="360" />
              <mxPoint x="350" y="350" />
              <mxPoint x="420" y="350" />
            </Array>
          </mxGeometry>
        </mxCell>
        <mxCell id="TkOLVOEPybVCUN1NsoD1-16" value="j &amp;lt; (n - i - 1)" style="rhombus;whiteSpace=wrap;html=1;" vertex="1" parent="1">
          <mxGeometry x="240" y="320" width="80" height="80" as="geometry" />
        </mxCell>
        <mxCell id="TkOLVOEPybVCUN1NsoD1-21" value="1" style="text;html=1;align=center;verticalAlign=middle;resizable=0;points=[];autosize=1;strokeColor=none;fillColor=none;" vertex="1" parent="1">
          <mxGeometry x="310" y="330" width="30" height="30" as="geometry" />
        </mxCell>
        <mxCell id="TkOLVOEPybVCUN1NsoD1-36" style="edgeStyle=orthogonalEdgeStyle;rounded=0;orthogonalLoop=1;jettySize=auto;html=1;exitX=1;exitY=0.5;exitDx=0;exitDy=0;" edge="1" parent="1" source="TkOLVOEPybVCUN1NsoD1-22">
          <mxGeometry relative="1" as="geometry">
            <mxPoint x="500" y="410" as="targetPoint" />
          </mxGeometry>
        </mxCell>
        <mxCell id="TkOLVOEPybVCUN1NsoD1-81" style="edgeStyle=orthogonalEdgeStyle;rounded=0;orthogonalLoop=1;jettySize=auto;html=1;exitX=0;exitY=0.5;exitDx=0;exitDy=0;entryX=0.5;entryY=0;entryDx=0;entryDy=0;" edge="1" parent="1" source="TkOLVOEPybVCUN1NsoD1-22" target="TkOLVOEPybVCUN1NsoD1-26">
          <mxGeometry relative="1" as="geometry" />
        </mxCell>
        <mxCell id="TkOLVOEPybVCUN1NsoD1-22" value="&lt;font&gt;arr[j]&amp;gt;arr[j+1]&lt;/font&gt;" style="rhombus;whiteSpace=wrap;html=1;" vertex="1" parent="1">
          <mxGeometry x="380" y="370" width="80" height="80" as="geometry" />
        </mxCell>
        <mxCell id="TkOLVOEPybVCUN1NsoD1-24" style="edgeStyle=orthogonalEdgeStyle;rounded=0;orthogonalLoop=1;jettySize=auto;html=1;exitX=0.5;exitY=1;exitDx=0;exitDy=0;entryX=0.5;entryY=0;entryDx=0;entryDy=0;" edge="1" parent="1" source="TkOLVOEPybVCUN1NsoD1-16" target="TkOLVOEPybVCUN1NsoD1-26">
          <mxGeometry relative="1" as="geometry">
            <mxPoint x="280" y="420" as="targetPoint" />
          </mxGeometry>
        </mxCell>
        <mxCell id="TkOLVOEPybVCUN1NsoD1-79" style="edgeStyle=orthogonalEdgeStyle;rounded=0;orthogonalLoop=1;jettySize=auto;html=1;exitX=1;exitY=0.5;exitDx=0;exitDy=0;entryX=0.5;entryY=0;entryDx=0;entryDy=0;" edge="1" parent="1" source="TkOLVOEPybVCUN1NsoD1-26" target="TkOLVOEPybVCUN1NsoD1-10">
          <mxGeometry relative="1" as="geometry">
            <Array as="points">
              <mxPoint x="420" y="500" />
            </Array>
          </mxGeometry>
        </mxCell>
        <mxCell id="TkOLVOEPybVCUN1NsoD1-80" style="edgeStyle=orthogonalEdgeStyle;rounded=0;orthogonalLoop=1;jettySize=auto;html=1;exitX=0;exitY=0.5;exitDx=0;exitDy=0;entryX=1;entryY=0.5;entryDx=0;entryDy=0;" edge="1" parent="1" source="TkOLVOEPybVCUN1NsoD1-26" target="TkOLVOEPybVCUN1NsoD1-62">
          <mxGeometry relative="1" as="geometry" />
        </mxCell>
        <mxCell id="TkOLVOEPybVCUN1NsoD1-26" value="&lt;font style=&quot;font-size: 9px;&quot;&gt;swapped==False&lt;/font&gt;" style="rhombus;whiteSpace=wrap;html=1;" vertex="1" parent="1">
          <mxGeometry x="240" y="460" width="80" height="80" as="geometry" />
        </mxCell>
        <mxCell id="TkOLVOEPybVCUN1NsoD1-27" value="1" style="text;html=1;align=center;verticalAlign=middle;resizable=0;points=[];autosize=1;strokeColor=none;fillColor=none;" vertex="1" parent="1">
          <mxGeometry x="310" y="470" width="30" height="30" as="geometry" />
        </mxCell>
        <mxCell id="TkOLVOEPybVCUN1NsoD1-34" value="0" style="text;html=1;align=center;verticalAlign=middle;resizable=0;points=[];autosize=1;strokeColor=none;fillColor=none;" vertex="1" parent="1">
          <mxGeometry x="360" y="380" width="30" height="30" as="geometry" />
        </mxCell>
        <mxCell id="TkOLVOEPybVCUN1NsoD1-37" value="1" style="text;html=1;align=center;verticalAlign=middle;resizable=0;points=[];autosize=1;strokeColor=none;fillColor=none;" vertex="1" parent="1">
          <mxGeometry x="450" y="380" width="30" height="30" as="geometry" />
        </mxCell>
        <mxCell id="TkOLVOEPybVCUN1NsoD1-82" style="edgeStyle=orthogonalEdgeStyle;rounded=0;orthogonalLoop=1;jettySize=auto;html=1;exitX=0.5;exitY=0;exitDx=0;exitDy=0;entryX=0.5;entryY=0;entryDx=0;entryDy=0;" edge="1" parent="1" source="TkOLVOEPybVCUN1NsoD1-38" target="TkOLVOEPybVCUN1NsoD1-16">
          <mxGeometry relative="1" as="geometry">
            <Array as="points">
              <mxPoint x="560" y="320" />
            </Array>
          </mxGeometry>
        </mxCell>
        <mxCell id="TkOLVOEPybVCUN1NsoD1-38" value="&lt;div&gt;&lt;font&gt;temp = arr[j];&lt;/font&gt;&lt;/div&gt;&lt;div&gt;&lt;font&gt;arr[j] = arr[j + &lt;span class=&quot;hljs-number&quot;&gt;1&lt;/span&gt;];&lt;/font&gt;&lt;/div&gt;&lt;div&gt;&lt;font&gt;arr[j + &lt;span class=&quot;hljs-number&quot;&gt;1&lt;/span&gt;] = temp;   &lt;/font&gt;&lt;/div&gt;&lt;div&gt;&lt;font&gt;swapped = True;&lt;/font&gt;&lt;/div&gt;&lt;div&gt;&lt;font&gt;j++;&lt;br&gt;&lt;/font&gt;&lt;/div&gt;" style="rounded=0;whiteSpace=wrap;html=1;" vertex="1" parent="1">
          <mxGeometry x="500" y="370" width="120" height="80" as="geometry" />
        </mxCell>
        <mxCell id="TkOLVOEPybVCUN1NsoD1-39" value="0" style="text;html=1;align=center;verticalAlign=middle;resizable=0;points=[];autosize=1;strokeColor=none;fillColor=none;" vertex="1" parent="1">
          <mxGeometry x="250" y="388" width="30" height="30" as="geometry" />
        </mxCell>
        <mxCell id="TkOLVOEPybVCUN1NsoD1-50" value="0" style="text;html=1;align=center;verticalAlign=middle;resizable=0;points=[];autosize=1;strokeColor=none;fillColor=none;" vertex="1" parent="1">
          <mxGeometry x="220" y="470" width="30" height="30" as="geometry" />
        </mxCell>
        <mxCell id="TkOLVOEPybVCUN1NsoD1-78" style="edgeStyle=orthogonalEdgeStyle;rounded=0;orthogonalLoop=1;jettySize=auto;html=1;exitX=0.5;exitY=0;exitDx=0;exitDy=0;entryX=0.5;entryY=0;entryDx=0;entryDy=0;" edge="1" parent="1" source="TkOLVOEPybVCUN1NsoD1-62" target="TkOLVOEPybVCUN1NsoD1-7">
          <mxGeometry relative="1" as="geometry" />
        </mxCell>
        <mxCell id="TkOLVOEPybVCUN1NsoD1-62" value="i++;" style="rounded=0;whiteSpace=wrap;html=1;" vertex="1" parent="1">
          <mxGeometry x="100" y="470" width="120" height="60" as="geometry" />
        </mxCell>
      </root>
    </mxGraphModel>
  </diagram>
</mxfile>
